<svg xmlns="http://www.w3.org/2000/svg" viewBox="0 0 112.6 112.98602">
  <defs>
    <style>
      .cls-1 {
        fill: #111;
      }
    </style>
  </defs>
  <title>loading-spin</title>
  <g id="Capa_2" data-name="Capa 2">
    <g id="Capa_1-2" data-name="Capa 1">
      <g>
        <path class="cls-1" d="M112.59936,56.53828c-.14811,31.47383-25.41674,56.68079-56.58427,56.44612A56.13633,56.13633,0,0,1,.00064,56.06527C.1467,24.36224,25.26515-.22692,57.27112.00158,87.85449.21992,112.74473,25.65379,112.59936,56.53828ZM56.7875,12.67531A43.72892,43.72892,0,0,0,12.60563,55.89108C12.33279,80.04654,31.781,100.074,55.70333,100.27245A43.802,43.802,0,0,0,56.7875,12.67531Z"/>
        <path class="cls-1" d="M56.00177,15.93492A40.455,40.455,0,1,0,96.69909,56.57137,40.56966,40.56966,0,0,0,56.00177,15.93492Zm2.45972,4.23327c9.95374.298,18.29924,4.68828,25.53418,12.79491C77.17122,38.03616,70.91612,42.81316,64.518,47.39043c-3.37668,2.41577-5.8604,1.43435-5.982-2.48877C58.28741,36.878,58.46149,28.84121,58.46149,20.16819Zm-4.5176.26179c0,8.40087.24594,16.767-.11505,25.10683-.15533,3.58922-2.78282,4.0052-5.51828,2.02606-6.50666-4.70766-12.95213-9.49993-19.70177-14.46351C35.75534,24.61836,45.8999,19.76925,53.94389,20.43ZM26.77128,35.29C33.18891,40.782,39.38692,45.96126,45.42923,51.31619c2.53171,2.24371,2.48378,4.81311-1.00561,5.86475-7.70024,2.32081-15.51869,4.24931-23.90321,6.503C18.89335,52.87228,20.48606,43.75537,26.77128,35.29ZM21.20292,66.43885c8.46882-1.63773,16.3499-3.315,24.29255-4.61692,2.88732-.47326,4.90107,1.1915,3.63986,4.30632-3.01765,7.45254-6.35348,14.77639-9.72972,22.54047C30.229,83.68336,24.54235,76.57665,21.20292,66.43885ZM42.03083,89.85934c3.82-7.22112,7.41446-14.224,11.21439-21.11357,1.96739-3.56718,4.34572-3.10788,6.14137.17036,3.7145,6.78139,7.2465,13.66267,11.12826,21.02365C60.71953,93.97478,51.63331,94.00806,42.03083,89.85934Zm31.113-1.15229c-3.39234-7.75815-6.7264-15.06867-9.771-22.49785-1.24959-3.04928.55944-4.904,3.534-4.42067,7.95426,1.2924,15.84261,2.99062,24.40835,4.65405A37.36134,37.36134,0,0,1,73.14386,88.70705ZM68.173,57.22439c-3.86912-1.18115-3.52493-3.84823-.83234-6.19846,5.9599-5.20213,12.02008-10.28941,18.46221-15.78427,6.15868,8.82563,7.96569,17.8806,6.10942,28.39764C83.68609,61.44692,75.85779,59.57051,68.173,57.22439Z"/>
      </g>
    </g>
  </g>
</svg>
